<?xml version="1.0" encoding="utf-8" standalone="no"?>
<!DOCTYPE svg PUBLIC "-//W3C//DTD SVG 1.1//EN"
  "http://www.w3.org/Graphics/SVG/1.1/DTD/svg11.dtd">
<!-- Created with matplotlib (https://matplotlib.org/) -->
<svg height="345.6pt" version="1.1" viewBox="0 0 460.8 345.6" width="460.8pt" xmlns="http://www.w3.org/2000/svg" xmlns:xlink="http://www.w3.org/1999/xlink">
 <defs>
  <style type="text/css">
*{stroke-linecap:butt;stroke-linejoin:round;}
  </style>
 </defs>
 <g id="figure_1">
  <g id="patch_1">
   <path d="M 0 345.6 
L 460.8 345.6 
L 460.8 0 
L 0 0 
z
" style="fill:#ffffff;"/>
  </g>
  <g id="axes_1">
   <g id="patch_2">
    <path d="M 57.6 307.584 
L 414.72 307.584 
L 414.72 41.472 
L 57.6 41.472 
z
" style="fill:#ffffff;"/>
   </g>
   <g id="matplotlib.axis_1">
    <g id="xtick_1">
     <g id="line2d_1">
      <defs>
       <path d="M 0 0 
L 0 3.5 
" id="md904117ace" style="stroke:#000000;stroke-width:0.8;"/>
      </defs>
      <g>
       <use style="stroke:#000000;stroke-width:0.8;" x="73.832727" xlink:href="#md904117ace" y="307.584"/>
      </g>
     </g>
     <g id="text_1">
      <!-- 0 -->
      <defs>
       <path d="M 31.78125 66.40625 
Q 24.171875 66.40625 20.328125 58.90625 
Q 16.5 51.421875 16.5 36.375 
Q 16.5 21.390625 20.328125 13.890625 
Q 24.171875 6.390625 31.78125 6.390625 
Q 39.453125 6.390625 43.28125 13.890625 
Q 47.125 21.390625 47.125 36.375 
Q 47.125 51.421875 43.28125 58.90625 
Q 39.453125 66.40625 31.78125 66.40625 
z
M 31.78125 74.21875 
Q 44.046875 74.21875 50.515625 64.515625 
Q 56.984375 54.828125 56.984375 36.375 
Q 56.984375 17.96875 50.515625 8.265625 
Q 44.046875 -1.421875 31.78125 -1.421875 
Q 19.53125 -1.421875 13.0625 8.265625 
Q 6.59375 17.96875 6.59375 36.375 
Q 6.59375 54.828125 13.0625 64.515625 
Q 19.53125 74.21875 31.78125 74.21875 
z
" id="DejaVuSans-48"/>
      </defs>
      <g transform="translate(70.651477 322.182437)scale(0.1 -0.1)">
       <use xlink:href="#DejaVuSans-48"/>
      </g>
     </g>
    </g>
    <g id="xtick_2">
     <g id="line2d_2">
      <g>
       <use style="stroke:#000000;stroke-width:0.8;" x="120.211948" xlink:href="#md904117ace" y="307.584"/>
      </g>
     </g>
     <g id="text_2">
      <!-- 20 -->
      <defs>
       <path d="M 19.1875 8.296875 
L 53.609375 8.296875 
L 53.609375 0 
L 7.328125 0 
L 7.328125 8.296875 
Q 12.9375 14.109375 22.625 23.890625 
Q 32.328125 33.6875 34.8125 36.53125 
Q 39.546875 41.84375 41.421875 45.53125 
Q 43.3125 49.21875 43.3125 52.78125 
Q 43.3125 58.59375 39.234375 62.25 
Q 35.15625 65.921875 28.609375 65.921875 
Q 23.96875 65.921875 18.8125 64.3125 
Q 13.671875 62.703125 7.8125 59.421875 
L 7.8125 69.390625 
Q 13.765625 71.78125 18.9375 73 
Q 24.125 74.21875 28.421875 74.21875 
Q 39.75 74.21875 46.484375 68.546875 
Q 53.21875 62.890625 53.21875 53.421875 
Q 53.21875 48.921875 51.53125 44.890625 
Q 49.859375 40.875 45.40625 35.40625 
Q 44.1875 33.984375 37.640625 27.21875 
Q 31.109375 20.453125 19.1875 8.296875 
z
" id="DejaVuSans-50"/>
      </defs>
      <g transform="translate(113.849448 322.182437)scale(0.1 -0.1)">
       <use xlink:href="#DejaVuSans-50"/>
       <use x="63.623047" xlink:href="#DejaVuSans-48"/>
      </g>
     </g>
    </g>
    <g id="xtick_3">
     <g id="line2d_3">
      <g>
       <use style="stroke:#000000;stroke-width:0.8;" x="166.591169" xlink:href="#md904117ace" y="307.584"/>
      </g>
     </g>
     <g id="text_3">
      <!-- 40 -->
      <defs>
       <path d="M 37.796875 64.3125 
L 12.890625 25.390625 
L 37.796875 25.390625 
z
M 35.203125 72.90625 
L 47.609375 72.90625 
L 47.609375 25.390625 
L 58.015625 25.390625 
L 58.015625 17.1875 
L 47.609375 17.1875 
L 47.609375 0 
L 37.796875 0 
L 37.796875 17.1875 
L 4.890625 17.1875 
L 4.890625 26.703125 
z
" id="DejaVuSans-52"/>
      </defs>
      <g transform="translate(160.228669 322.182437)scale(0.1 -0.1)">
       <use xlink:href="#DejaVuSans-52"/>
       <use x="63.623047" xlink:href="#DejaVuSans-48"/>
      </g>
     </g>
    </g>
    <g id="xtick_4">
     <g id="line2d_4">
      <g>
       <use style="stroke:#000000;stroke-width:0.8;" x="212.97039" xlink:href="#md904117ace" y="307.584"/>
      </g>
     </g>
     <g id="text_4">
      <!-- 60 -->
      <defs>
       <path d="M 33.015625 40.375 
Q 26.375 40.375 22.484375 35.828125 
Q 18.609375 31.296875 18.609375 23.390625 
Q 18.609375 15.53125 22.484375 10.953125 
Q 26.375 6.390625 33.015625 6.390625 
Q 39.65625 6.390625 43.53125 10.953125 
Q 47.40625 15.53125 47.40625 23.390625 
Q 47.40625 31.296875 43.53125 35.828125 
Q 39.65625 40.375 33.015625 40.375 
z
M 52.59375 71.296875 
L 52.59375 62.3125 
Q 48.875 64.0625 45.09375 64.984375 
Q 41.3125 65.921875 37.59375 65.921875 
Q 27.828125 65.921875 22.671875 59.328125 
Q 17.53125 52.734375 16.796875 39.40625 
Q 19.671875 43.65625 24.015625 45.921875 
Q 28.375 48.1875 33.59375 48.1875 
Q 44.578125 48.1875 50.953125 41.515625 
Q 57.328125 34.859375 57.328125 23.390625 
Q 57.328125 12.15625 50.6875 5.359375 
Q 44.046875 -1.421875 33.015625 -1.421875 
Q 20.359375 -1.421875 13.671875 8.265625 
Q 6.984375 17.96875 6.984375 36.375 
Q 6.984375 53.65625 15.1875 63.9375 
Q 23.390625 74.21875 37.203125 74.21875 
Q 40.921875 74.21875 44.703125 73.484375 
Q 48.484375 72.75 52.59375 71.296875 
z
" id="DejaVuSans-54"/>
      </defs>
      <g transform="translate(206.60789 322.182437)scale(0.1 -0.1)">
       <use xlink:href="#DejaVuSans-54"/>
       <use x="63.623047" xlink:href="#DejaVuSans-48"/>
      </g>
     </g>
    </g>
    <g id="xtick_5">
     <g id="line2d_5">
      <g>
       <use style="stroke:#000000;stroke-width:0.8;" x="259.34961" xlink:href="#md904117ace" y="307.584"/>
      </g>
     </g>
     <g id="text_5">
      <!-- 80 -->
      <defs>
       <path d="M 31.78125 34.625 
Q 24.75 34.625 20.71875 30.859375 
Q 16.703125 27.09375 16.703125 20.515625 
Q 16.703125 13.921875 20.71875 10.15625 
Q 24.75 6.390625 31.78125 6.390625 
Q 38.8125 6.390625 42.859375 10.171875 
Q 46.921875 13.96875 46.921875 20.515625 
Q 46.921875 27.09375 42.890625 30.859375 
Q 38.875 34.625 31.78125 34.625 
z
M 21.921875 38.8125 
Q 15.578125 40.375 12.03125 44.71875 
Q 8.5 49.078125 8.5 55.328125 
Q 8.5 64.0625 14.71875 69.140625 
Q 20.953125 74.21875 31.78125 74.21875 
Q 42.671875 74.21875 48.875 69.140625 
Q 55.078125 64.0625 55.078125 55.328125 
Q 55.078125 49.078125 51.53125 44.71875 
Q 48 40.375 41.703125 38.8125 
Q 48.828125 37.15625 52.796875 32.3125 
Q 56.78125 27.484375 56.78125 20.515625 
Q 56.78125 9.90625 50.3125 4.234375 
Q 43.84375 -1.421875 31.78125 -1.421875 
Q 19.734375 -1.421875 13.25 4.234375 
Q 6.78125 9.90625 6.78125 20.515625 
Q 6.78125 27.484375 10.78125 32.3125 
Q 14.796875 37.15625 21.921875 38.8125 
z
M 18.3125 54.390625 
Q 18.3125 48.734375 21.84375 45.5625 
Q 25.390625 42.390625 31.78125 42.390625 
Q 38.140625 42.390625 41.71875 45.5625 
Q 45.3125 48.734375 45.3125 54.390625 
Q 45.3125 60.0625 41.71875 63.234375 
Q 38.140625 66.40625 31.78125 66.40625 
Q 25.390625 66.40625 21.84375 63.234375 
Q 18.3125 60.0625 18.3125 54.390625 
z
" id="DejaVuSans-56"/>
      </defs>
      <g transform="translate(252.98711 322.182437)scale(0.1 -0.1)">
       <use xlink:href="#DejaVuSans-56"/>
       <use x="63.623047" xlink:href="#DejaVuSans-48"/>
      </g>
     </g>
    </g>
    <g id="xtick_6">
     <g id="line2d_6">
      <g>
       <use style="stroke:#000000;stroke-width:0.8;" x="305.728831" xlink:href="#md904117ace" y="307.584"/>
      </g>
     </g>
     <g id="text_6">
      <!-- 100 -->
      <defs>
       <path d="M 12.40625 8.296875 
L 28.515625 8.296875 
L 28.515625 63.921875 
L 10.984375 60.40625 
L 10.984375 69.390625 
L 28.421875 72.90625 
L 38.28125 72.90625 
L 38.28125 8.296875 
L 54.390625 8.296875 
L 54.390625 0 
L 12.40625 0 
z
" id="DejaVuSans-49"/>
      </defs>
      <g transform="translate(296.185081 322.182437)scale(0.1 -0.1)">
       <use xlink:href="#DejaVuSans-49"/>
       <use x="63.623047" xlink:href="#DejaVuSans-48"/>
       <use x="127.246094" xlink:href="#DejaVuSans-48"/>
      </g>
     </g>
    </g>
    <g id="xtick_7">
     <g id="line2d_7">
      <g>
       <use style="stroke:#000000;stroke-width:0.8;" x="352.108052" xlink:href="#md904117ace" y="307.584"/>
      </g>
     </g>
     <g id="text_7">
      <!-- 120 -->
      <g transform="translate(342.564302 322.182437)scale(0.1 -0.1)">
       <use xlink:href="#DejaVuSans-49"/>
       <use x="63.623047" xlink:href="#DejaVuSans-50"/>
       <use x="127.246094" xlink:href="#DejaVuSans-48"/>
      </g>
     </g>
    </g>
    <g id="xtick_8">
     <g id="line2d_8">
      <g>
       <use style="stroke:#000000;stroke-width:0.8;" x="398.487273" xlink:href="#md904117ace" y="307.584"/>
      </g>
     </g>
     <g id="text_8">
      <!-- 140 -->
      <g transform="translate(388.943523 322.182437)scale(0.1 -0.1)">
       <use xlink:href="#DejaVuSans-49"/>
       <use x="63.623047" xlink:href="#DejaVuSans-52"/>
       <use x="127.246094" xlink:href="#DejaVuSans-48"/>
      </g>
     </g>
    </g>
   </g>
   <g id="matplotlib.axis_2">
    <g id="ytick_1">
     <g id="line2d_9">
      <defs>
       <path d="M 0 0 
L -3.5 0 
" id="m137ec36d73" style="stroke:#000000;stroke-width:0.8;"/>
      </defs>
      <g>
       <use style="stroke:#000000;stroke-width:0.8;" x="57.6" xlink:href="#m137ec36d73" y="287.298087"/>
      </g>
     </g>
     <g id="text_9">
      <!-- 0.1 -->
      <defs>
       <path d="M 10.6875 12.40625 
L 21 12.40625 
L 21 0 
L 10.6875 0 
z
" id="DejaVuSans-46"/>
      </defs>
      <g transform="translate(34.696875 291.097305)scale(0.1 -0.1)">
       <use xlink:href="#DejaVuSans-48"/>
       <use x="63.623047" xlink:href="#DejaVuSans-46"/>
       <use x="95.410156" xlink:href="#DejaVuSans-49"/>
      </g>
     </g>
    </g>
    <g id="ytick_2">
     <g id="line2d_10">
      <g>
       <use style="stroke:#000000;stroke-width:0.8;" x="57.6" xlink:href="#m137ec36d73" y="253.257864"/>
      </g>
     </g>
     <g id="text_10">
      <!-- 0.2 -->
      <g transform="translate(34.696875 257.057083)scale(0.1 -0.1)">
       <use xlink:href="#DejaVuSans-48"/>
       <use x="63.623047" xlink:href="#DejaVuSans-46"/>
       <use x="95.410156" xlink:href="#DejaVuSans-50"/>
      </g>
     </g>
    </g>
    <g id="ytick_3">
     <g id="line2d_11">
      <g>
       <use style="stroke:#000000;stroke-width:0.8;" x="57.6" xlink:href="#m137ec36d73" y="219.217642"/>
      </g>
     </g>
     <g id="text_11">
      <!-- 0.3 -->
      <defs>
       <path d="M 40.578125 39.3125 
Q 47.65625 37.796875 51.625 33 
Q 55.609375 28.21875 55.609375 21.1875 
Q 55.609375 10.40625 48.1875 4.484375 
Q 40.765625 -1.421875 27.09375 -1.421875 
Q 22.515625 -1.421875 17.65625 -0.515625 
Q 12.796875 0.390625 7.625 2.203125 
L 7.625 11.71875 
Q 11.71875 9.328125 16.59375 8.109375 
Q 21.484375 6.890625 26.8125 6.890625 
Q 36.078125 6.890625 40.9375 10.546875 
Q 45.796875 14.203125 45.796875 21.1875 
Q 45.796875 27.640625 41.28125 31.265625 
Q 36.765625 34.90625 28.71875 34.90625 
L 20.21875 34.90625 
L 20.21875 43.015625 
L 29.109375 43.015625 
Q 36.375 43.015625 40.234375 45.921875 
Q 44.09375 48.828125 44.09375 54.296875 
Q 44.09375 59.90625 40.109375 62.90625 
Q 36.140625 65.921875 28.71875 65.921875 
Q 24.65625 65.921875 20.015625 65.03125 
Q 15.375 64.15625 9.8125 62.3125 
L 9.8125 71.09375 
Q 15.4375 72.65625 20.34375 73.4375 
Q 25.25 74.21875 29.59375 74.21875 
Q 40.828125 74.21875 47.359375 69.109375 
Q 53.90625 64.015625 53.90625 55.328125 
Q 53.90625 49.265625 50.4375 45.09375 
Q 46.96875 40.921875 40.578125 39.3125 
z
" id="DejaVuSans-51"/>
      </defs>
      <g transform="translate(34.696875 223.016861)scale(0.1 -0.1)">
       <use xlink:href="#DejaVuSans-48"/>
       <use x="63.623047" xlink:href="#DejaVuSans-46"/>
       <use x="95.410156" xlink:href="#DejaVuSans-51"/>
      </g>
     </g>
    </g>
    <g id="ytick_4">
     <g id="line2d_12">
      <g>
       <use style="stroke:#000000;stroke-width:0.8;" x="57.6" xlink:href="#m137ec36d73" y="185.177419"/>
      </g>
     </g>
     <g id="text_12">
      <!-- 0.4 -->
      <g transform="translate(34.696875 188.976638)scale(0.1 -0.1)">
       <use xlink:href="#DejaVuSans-48"/>
       <use x="63.623047" xlink:href="#DejaVuSans-46"/>
       <use x="95.410156" xlink:href="#DejaVuSans-52"/>
      </g>
     </g>
    </g>
    <g id="ytick_5">
     <g id="line2d_13">
      <g>
       <use style="stroke:#000000;stroke-width:0.8;" x="57.6" xlink:href="#m137ec36d73" y="151.137197"/>
      </g>
     </g>
     <g id="text_13">
      <!-- 0.5 -->
      <defs>
       <path d="M 10.796875 72.90625 
L 49.515625 72.90625 
L 49.515625 64.59375 
L 19.828125 64.59375 
L 19.828125 46.734375 
Q 21.96875 47.46875 24.109375 47.828125 
Q 26.265625 48.1875 28.421875 48.1875 
Q 40.625 48.1875 47.75 41.5 
Q 54.890625 34.8125 54.890625 23.390625 
Q 54.890625 11.625 47.5625 5.09375 
Q 40.234375 -1.421875 26.90625 -1.421875 
Q 22.3125 -1.421875 17.546875 -0.640625 
Q 12.796875 0.140625 7.71875 1.703125 
L 7.71875 11.625 
Q 12.109375 9.234375 16.796875 8.0625 
Q 21.484375 6.890625 26.703125 6.890625 
Q 35.15625 6.890625 40.078125 11.328125 
Q 45.015625 15.765625 45.015625 23.390625 
Q 45.015625 31 40.078125 35.4375 
Q 35.15625 39.890625 26.703125 39.890625 
Q 22.75 39.890625 18.8125 39.015625 
Q 14.890625 38.140625 10.796875 36.28125 
z
" id="DejaVuSans-53"/>
      </defs>
      <g transform="translate(34.696875 154.936416)scale(0.1 -0.1)">
       <use xlink:href="#DejaVuSans-48"/>
       <use x="63.623047" xlink:href="#DejaVuSans-46"/>
       <use x="95.410156" xlink:href="#DejaVuSans-53"/>
      </g>
     </g>
    </g>
    <g id="ytick_6">
     <g id="line2d_14">
      <g>
       <use style="stroke:#000000;stroke-width:0.8;" x="57.6" xlink:href="#m137ec36d73" y="117.096975"/>
      </g>
     </g>
     <g id="text_14">
      <!-- 0.6 -->
      <g transform="translate(34.696875 120.896193)scale(0.1 -0.1)">
       <use xlink:href="#DejaVuSans-48"/>
       <use x="63.623047" xlink:href="#DejaVuSans-46"/>
       <use x="95.410156" xlink:href="#DejaVuSans-54"/>
      </g>
     </g>
    </g>
    <g id="ytick_7">
     <g id="line2d_15">
      <g>
       <use style="stroke:#000000;stroke-width:0.8;" x="57.6" xlink:href="#m137ec36d73" y="83.056752"/>
      </g>
     </g>
     <g id="text_15">
      <!-- 0.7 -->
      <defs>
       <path d="M 8.203125 72.90625 
L 55.078125 72.90625 
L 55.078125 68.703125 
L 28.609375 0 
L 18.3125 0 
L 43.21875 64.59375 
L 8.203125 64.59375 
z
" id="DejaVuSans-55"/>
      </defs>
      <g transform="translate(34.696875 86.855971)scale(0.1 -0.1)">
       <use xlink:href="#DejaVuSans-48"/>
       <use x="63.623047" xlink:href="#DejaVuSans-46"/>
       <use x="95.410156" xlink:href="#DejaVuSans-55"/>
      </g>
     </g>
    </g>
    <g id="ytick_8">
     <g id="line2d_16">
      <g>
       <use style="stroke:#000000;stroke-width:0.8;" x="57.6" xlink:href="#m137ec36d73" y="49.01653"/>
      </g>
     </g>
     <g id="text_16">
      <!-- 0.8 -->
      <g transform="translate(34.696875 52.815748)scale(0.1 -0.1)">
       <use xlink:href="#DejaVuSans-48"/>
       <use x="63.623047" xlink:href="#DejaVuSans-46"/>
       <use x="95.410156" xlink:href="#DejaVuSans-56"/>
      </g>
     </g>
    </g>
   </g>
   <g id="line2d_17">
    <path clip-path="url(#p005c14f05c)" d="M 73.832727 256.639741 
L 76.151688 259.031722 
L 78.470649 251.611224 
L 80.78961 246.711936 
L 85.427532 238.030883 
L 90.065455 229.317707 
L 94.703377 220.218532 
L 103.979221 201.303402 
L 110.936104 186.490222 
L 113.255065 182.785756 
L 115.574026 177.727925 
L 117.892987 174.379855 
L 120.211948 169.956387 
L 122.530909 166.279727 
L 124.84987 162.10717 
L 127.168831 160.464782 
L 129.487792 157.693046 
L 131.806753 152.003703 
L 134.125714 152.723668 
L 136.444675 149.936339 
L 138.763636 146.46571 
L 141.082597 146.883167 
L 143.401558 143.115255 
L 145.720519 142.775568 
L 148.039481 139.439458 
L 150.358442 139.097842 
L 152.677403 137.649899 
L 154.996364 135.64032 
L 159.634286 135.208518 
L 161.953247 135.363286 
L 166.591169 132.063941 
L 168.91013 131.853802 
L 171.229091 131.137094 
L 173.548052 129.47822 
L 175.867013 129.39901 
L 178.185974 128.608387 
L 180.504935 127.519 
L 182.823896 127.575831 
L 185.142857 126.17991 
L 187.461818 126.345128 
L 189.780779 125.355667 
L 192.09974 125.836367 
L 194.418701 126.486749 
L 196.737662 126.647503 
L 199.056623 125.356134 
L 201.375584 126.756234 
L 203.694545 124.111836 
L 206.013506 122.666956 
L 208.332468 122.332706 
L 210.651429 122.241971 
L 215.289351 122.649629 
L 217.608312 122.395725 
L 219.927273 122.322987 
L 222.246234 121.554662 
L 224.565195 121.236238 
L 229.203117 119.930423 
L 231.522078 119.521629 
L 233.841039 120.062508 
L 236.16 119.5504 
L 238.478961 118.651471 
L 240.797922 118.1518 
L 243.116883 118.116861 
L 245.435844 119.399202 
L 247.754805 119.22881 
L 250.073766 118.658248 
L 252.392727 117.484172 
L 254.711688 116.953925 
L 257.030649 118.010686 
L 259.34961 118.053761 
L 261.668571 116.314378 
L 263.987532 116.294149 
L 266.306494 118.074111 
L 268.625455 117.398652 
L 270.944416 117.03553 
L 273.263377 116.808124 
L 275.582338 115.060727 
L 277.901299 114.600276 
L 280.22026 117.376678 
L 282.539221 115.910332 
L 284.858182 116.166001 
L 287.177143 117.073309 
L 289.496104 116.517111 
L 291.815065 115.070507 
L 294.134026 114.550972 
L 296.452987 116.165615 
L 298.771948 116.917059 
L 301.090909 115.74063 
L 303.40987 116.307074 
L 305.728831 114.761761 
L 308.047792 116.523482 
L 310.366753 115.150752 
L 312.685714 115.610249 
L 315.004675 114.55852 
L 321.961558 115.933421 
L 324.280519 114.63633 
L 326.599481 114.704057 
L 328.918442 113.648696 
L 331.237403 113.688301 
L 333.556364 114.280513 
L 335.875325 114.439846 
L 338.194286 113.737848 
L 340.513247 112.807004 
L 342.832208 113.301258 
L 345.151169 113.971584 
L 347.47013 114.455348 
L 349.789091 114.409331 
L 352.108052 112.690725 
L 354.427013 111.987387 
L 356.745974 114.851907 
L 359.064935 113.383369 
L 361.383896 112.703385 
L 363.702857 112.897313 
L 366.021818 112.13826 
L 368.340779 111.082879 
L 372.978701 112.829627 
L 375.297662 111.514641 
L 377.616623 110.515948 
L 379.935584 110.004449 
L 382.254545 110.113444 
L 384.573506 110.596133 
L 386.892468 108.051478 
L 389.211429 108.328775 
L 391.53039 109.248642 
L 393.849351 110.542386 
L 396.168312 108.413585 
L 398.487273 108.413585 
L 398.487273 108.413585 
" style="fill:none;stroke:#1f77b4;stroke-linecap:square;stroke-width:1.5;"/>
   </g>
   <g id="line2d_18">
    <path clip-path="url(#p005c14f05c)" d="M 73.832727 274.559313 
L 76.151688 273.748968 
L 78.470649 259.634845 
L 80.78961 250.064693 
L 83.108571 242.404565 
L 101.66026 190.247006 
L 106.298182 176.253727 
L 110.936104 161.965529 
L 120.211948 136.531681 
L 122.530909 130.898306 
L 124.84987 125.69503 
L 127.168831 122.366285 
L 131.806753 113.998549 
L 134.125714 112.456299 
L 136.444675 108.323013 
L 141.082597 104.678826 
L 143.401558 102.006185 
L 148.039481 98.652585 
L 150.358442 98.251907 
L 152.677403 96.633714 
L 154.996364 94.752446 
L 157.315325 93.684526 
L 159.634286 92.183079 
L 161.953247 91.945955 
L 164.272208 90.741404 
L 166.591169 90.009215 
L 168.91013 89.14626 
L 171.229091 87.91231 
L 173.548052 87.270105 
L 175.867013 86.440039 
L 178.185974 85.149887 
L 180.504935 85.247582 
L 182.823896 84.965719 
L 185.142857 83.733372 
L 187.461818 83.510126 
L 194.418701 81.28564 
L 196.737662 80.873113 
L 199.056623 80.295997 
L 201.375584 80.780816 
L 203.694545 79.987373 
L 206.013506 78.981721 
L 208.332468 79.191901 
L 212.97039 77.947786 
L 215.289351 77.114433 
L 217.608312 76.760116 
L 219.927273 76.940247 
L 222.246234 76.300335 
L 224.565195 75.845605 
L 229.203117 75.632301 
L 231.522078 75.246434 
L 233.841039 74.722254 
L 236.16 73.815027 
L 238.478961 74.554135 
L 240.797922 73.635971 
L 243.116883 73.041183 
L 245.435844 73.371517 
L 247.754805 72.894693 
L 250.073766 73.285226 
L 252.392727 72.604288 
L 254.711688 72.620601 
L 257.030649 72.288928 
L 259.34961 71.639439 
L 261.668571 71.754785 
L 263.987532 71.704852 
L 266.306494 71.025355 
L 270.944416 70.326603 
L 273.263377 70.515154 
L 275.582338 70.271476 
L 277.901299 70.571944 
L 280.22026 69.702517 
L 282.539221 69.939783 
L 284.858182 69.079161 
L 287.177143 68.92632 
L 289.496104 68.523694 
L 291.815065 68.473031 
L 294.134026 69.079141 
L 296.452987 68.019356 
L 298.771948 67.995232 
L 301.090909 68.529821 
L 303.40987 67.919227 
L 305.728831 68.295822 
L 308.047792 67.389305 
L 310.366753 67.797226 
L 312.685714 67.787487 
L 315.004675 68.291845 
L 317.323636 67.221084 
L 319.642597 67.38689 
L 321.961558 66.896045 
L 324.280519 66.702869 
L 326.599481 66.681199 
L 328.918442 67.202438 
L 331.237403 66.940683 
L 335.875325 66.181772 
L 338.194286 66.577013 
L 340.513247 65.919793 
L 342.832208 66.173474 
L 345.151169 65.558964 
L 347.47013 65.40105 
L 349.789091 65.662887 
L 352.108052 65.354303 
L 354.427013 65.528063 
L 356.745974 64.708811 
L 359.064935 64.636499 
L 361.383896 64.959955 
L 363.702857 65.038496 
L 366.021818 64.306632 
L 368.340779 64.876504 
L 370.65974 64.511008 
L 372.978701 64.944028 
L 375.297662 65.132782 
L 377.616623 65.125985 
L 379.935584 64.723684 
L 382.254545 64.704124 
L 384.573506 63.866856 
L 389.211429 64.569909 
L 391.53039 63.842589 
L 393.849351 62.88894 
L 396.168312 64.097954 
L 398.487273 64.097954 
L 398.487273 64.097954 
" style="fill:none;stroke:#ff7f0e;stroke-linecap:square;stroke-width:1.5;"/>
   </g>
   <g id="line2d_19">
    <path clip-path="url(#p005c14f05c)" d="M 73.832727 284.753936 
L 76.151688 278.051475 
L 78.470649 261.481072 
L 80.78961 248.569318 
L 83.108571 238.533694 
L 87.746494 222.295634 
L 92.384416 206.567334 
L 103.979221 168.84597 
L 110.936104 146.213998 
L 115.574026 132.687317 
L 117.892987 126.036341 
L 120.211948 119.76693 
L 122.530909 114.484504 
L 124.84987 109.909493 
L 127.168831 105.842736 
L 131.806753 99.778534 
L 134.125714 96.932336 
L 136.444675 93.497172 
L 138.763636 91.806362 
L 143.401558 88.033946 
L 145.720519 85.864384 
L 148.039481 84.976473 
L 150.358442 84.216203 
L 154.996364 81.816719 
L 157.315325 80.186048 
L 159.634286 79.069473 
L 164.272208 77.606231 
L 166.591169 77.059529 
L 168.91013 75.877034 
L 171.229091 75.381157 
L 173.548052 74.401557 
L 175.867013 73.746529 
L 178.185974 72.69129 
L 180.504935 72.638517 
L 182.823896 72.139353 
L 185.142857 71.130536 
L 187.461818 70.528992 
L 189.780779 70.132595 
L 192.09974 69.454294 
L 194.418701 69.32503 
L 196.737662 68.695343 
L 199.056623 68.279225 
L 201.375584 68.149027 
L 203.694545 67.677944 
L 208.332468 67.018534 
L 210.651429 66.150262 
L 212.97039 65.948341 
L 215.289351 65.411702 
L 217.608312 65.185129 
L 219.927273 65.375993 
L 224.565195 64.499078 
L 226.884156 64.511435 
L 229.203117 64.131005 
L 231.522078 64.094748 
L 233.841039 63.723733 
L 236.16 63.503632 
L 238.478961 63.11596 
L 240.797922 62.852682 
L 243.116883 62.41875 
L 245.435844 62.456914 
L 247.754805 61.94722 
L 254.711688 61.555936 
L 257.030649 61.108572 
L 259.34961 60.933067 
L 261.668571 60.537462 
L 266.306494 60.222385 
L 268.625455 59.961685 
L 270.944416 60.011191 
L 273.263377 59.926888 
L 275.582338 59.514767 
L 277.901299 59.663591 
L 280.22026 59.34612 
L 282.539221 59.258327 
L 284.858182 58.916326 
L 287.177143 58.75681 
L 289.496104 58.456667 
L 291.815065 58.278524 
L 294.134026 58.488825 
L 296.452987 58.197934 
L 298.771948 57.784697 
L 301.090909 58.049922 
L 303.40987 57.758726 
L 305.728831 57.697959 
L 308.047792 57.513831 
L 310.366753 57.215575 
L 312.685714 57.430543 
L 317.323636 57.216386 
L 324.280519 56.996285 
L 331.237403 56.503472 
L 333.556364 56.575358 
L 342.832208 56.058746 
L 345.151169 55.720985 
L 347.47013 55.76684 
L 359.064935 55.203115 
L 361.383896 55.340739 
L 366.021818 54.882073 
L 372.978701 54.816863 
L 375.297662 54.952133 
L 377.616623 54.615002 
L 379.935584 54.440633 
L 382.254545 54.489917 
L 384.573506 54.122656 
L 386.892468 54.184336 
L 389.211429 54.381733 
L 391.53039 53.882914 
L 393.849351 53.568 
L 398.487273 53.589872 
L 398.487273 53.589872 
" style="fill:none;stroke:#2ca02c;stroke-linecap:square;stroke-width:1.5;"/>
   </g>
   <g id="line2d_20">
    <path clip-path="url(#p005c14f05c)" d="M 73.832727 290.545442 
L 76.151688 284.475173 
L 78.470649 271.30286 
L 80.78961 258.836512 
L 83.108571 249.307254 
L 87.746494 233.695249 
L 92.384416 218.938727 
L 99.341299 197.823419 
L 108.617143 169.185151 
L 113.255065 155.611541 
L 120.211948 137.096095 
L 122.530909 131.855385 
L 124.84987 128.374164 
L 127.168831 122.884156 
L 129.487792 119.697986 
L 131.806753 117.070529 
L 134.125714 113.731822 
L 136.444675 110.802498 
L 138.763636 108.852347 
L 141.082597 106.545039 
L 143.401558 104.874823 
L 148.039481 101.028614 
L 150.358442 99.588279 
L 152.677403 98.797189 
L 154.996364 97.673046 
L 157.315325 96.388778 
L 159.634286 94.827233 
L 161.953247 94.013825 
L 166.591169 92.002177 
L 168.91013 91.388621 
L 173.548052 89.628827 
L 180.504935 87.666624 
L 182.823896 86.772463 
L 185.142857 86.479928 
L 187.461818 85.669523 
L 189.780779 85.139337 
L 194.418701 84.286871 
L 196.737662 83.494747 
L 199.056623 83.033667 
L 201.375584 82.3255 
L 203.694545 82.131634 
L 206.013506 81.813473 
L 208.332468 81.693582 
L 210.651429 80.860655 
L 212.97039 80.550834 
L 215.289351 80.039497 
L 217.608312 79.66832 
L 222.246234 79.356165 
L 224.565195 78.84359 
L 226.884156 78.48061 
L 229.203117 78.567388 
L 231.522078 78.327099 
L 233.841039 77.701795 
L 238.478961 77.117273 
L 240.797922 76.512604 
L 243.116883 76.633307 
L 245.435844 75.982397 
L 252.392727 75.256762 
L 254.711688 75.04713 
L 257.030649 74.514184 
L 266.306494 74.140491 
L 268.625455 73.803583 
L 270.944416 73.333414 
L 273.263377 73.282527 
L 275.582338 72.913866 
L 277.901299 72.935333 
L 280.22026 72.578663 
L 287.177143 71.916635 
L 289.496104 71.369527 
L 298.771948 70.89816 
L 301.090909 70.895076 
L 305.728831 70.465506 
L 308.047792 70.453169 
L 310.366753 70.143531 
L 312.685714 70.26961 
L 315.004675 70.193544 
L 317.323636 70.277279 
L 319.642597 69.921928 
L 324.280519 69.597011 
L 326.599481 69.577777 
L 328.918442 69.375956 
L 331.237403 68.917615 
L 333.556364 69.068286 
L 335.875325 68.809776 
L 340.513247 68.68743 
L 342.832208 68.024936 
L 345.151169 68.139613 
L 347.47013 67.995232 
L 349.789091 67.697726 
L 354.427013 67.61738 
L 356.745974 67.354224 
L 361.383896 67.388351 
L 363.702857 67.32237 
L 366.021818 66.915625 
L 368.340779 66.966126 
L 372.978701 66.697614 
L 375.297662 66.93701 
L 377.616623 66.582978 
L 379.935584 66.58592 
L 384.573506 66.156735 
L 386.892468 66.201615 
L 389.211429 65.920808 
L 391.53039 65.888913 
L 393.849351 65.446195 
L 398.487273 65.421604 
L 398.487273 65.421604 
" style="fill:none;stroke:#d62728;stroke-linecap:square;stroke-width:1.5;"/>
   </g>
   <g id="line2d_21">
    <path clip-path="url(#p005c14f05c)" d="M 73.832727 295.488 
L 76.151688 290.146854 
L 80.78961 276.096125 
L 83.108571 271.97665 
L 85.427532 268.912497 
L 90.065455 263.030986 
L 94.703377 256.834693 
L 97.022338 253.564393 
L 99.341299 250.050648 
L 103.979221 242.316742 
L 106.298182 238.2041 
L 108.617143 233.852584 
L 113.255065 224.411794 
L 117.892987 214.288778 
L 122.530909 205.545096 
L 124.84987 201.877648 
L 127.168831 196.861005 
L 129.487792 194.514274 
L 131.806753 191.638778 
L 134.125714 188.529708 
L 136.444675 185.835052 
L 138.763636 182.78532 
L 141.082597 180.445335 
L 143.401558 178.453378 
L 145.720519 175.965635 
L 148.039481 173.913438 
L 150.358442 172.311243 
L 152.677403 171.161962 
L 154.996364 169.400788 
L 157.315325 167.986119 
L 159.634286 165.685142 
L 161.953247 164.943011 
L 166.591169 161.914389 
L 168.91013 161.465604 
L 171.229091 160.08981 
L 178.185974 156.566935 
L 182.823896 154.644104 
L 185.142857 154.035194 
L 187.461818 153.296868 
L 189.780779 152.16675 
L 192.09974 151.35885 
L 194.418701 150.360756 
L 196.737662 149.849236 
L 199.056623 148.645802 
L 203.694545 146.989201 
L 208.332468 146.149781 
L 210.651429 145.239044 
L 212.97039 144.98161 
L 215.289351 143.766875 
L 217.608312 143.18353 
L 219.927273 142.838384 
L 229.203117 140.492019 
L 231.522078 140.782565 
L 233.841039 139.745546 
L 236.16 139.3373 
L 238.478961 138.63727 
L 240.797922 138.285834 
L 243.116883 138.365978 
L 245.435844 136.831925 
L 247.754805 136.870374 
L 254.711688 135.394329 
L 257.030649 134.438164 
L 259.34961 134.361936 
L 261.668571 134.409312 
L 263.987532 133.988 
L 266.306494 133.815051 
L 268.625455 133.054071 
L 270.944416 132.867996 
L 273.263377 132.385754 
L 275.582338 132.082547 
L 277.901299 131.901483 
L 280.22026 131.594218 
L 282.539221 130.738709 
L 284.858182 130.472023 
L 287.177143 130.547804 
L 289.496104 129.945509 
L 291.815065 129.462962 
L 294.134026 129.191245 
L 298.771948 128.962764 
L 305.728831 127.946095 
L 308.047792 128.115371 
L 310.366753 127.155066 
L 315.004675 126.962458 
L 317.323636 126.869876 
L 319.642597 126.628167 
L 321.961558 126.647482 
L 324.280519 126.306902 
L 326.599481 126.278476 
L 328.918442 126.104859 
L 331.237403 125.556655 
L 333.556364 125.446199 
L 335.875325 124.870625 
L 338.194286 124.430828 
L 340.513247 124.282735 
L 342.832208 123.795583 
L 345.151169 123.647286 
L 347.47013 123.670437 
L 349.789091 123.270124 
L 356.745974 122.591925 
L 359.064935 122.614142 
L 361.383896 122.411024 
L 363.702857 122.684243 
L 366.021818 121.874324 
L 368.340779 121.485211 
L 370.65974 121.575196 
L 375.297662 121.154634 
L 377.616623 120.578045 
L 382.254545 119.86016 
L 384.573506 119.870589 
L 386.892468 119.579332 
L 389.211429 118.95202 
L 391.53039 118.863639 
L 393.849351 118.978762 
L 396.168312 118.618358 
L 398.487273 118.618358 
L 398.487273 118.618358 
" style="fill:none;stroke:#9467bd;stroke-linecap:square;stroke-width:1.5;"/>
   </g>
   <g id="patch_3">
    <path d="M 57.6 307.584 
L 57.6 41.472 
" style="fill:none;stroke:#000000;stroke-linecap:square;stroke-linejoin:miter;stroke-width:0.8;"/>
   </g>
   <g id="patch_4">
    <path d="M 414.72 307.584 
L 414.72 41.472 
" style="fill:none;stroke:#000000;stroke-linecap:square;stroke-linejoin:miter;stroke-width:0.8;"/>
   </g>
   <g id="patch_5">
    <path d="M 57.6 307.584 
L 414.72 307.584 
" style="fill:none;stroke:#000000;stroke-linecap:square;stroke-linejoin:miter;stroke-width:0.8;"/>
   </g>
   <g id="patch_6">
    <path d="M 57.6 41.472 
L 414.72 41.472 
" style="fill:none;stroke:#000000;stroke-linecap:square;stroke-linejoin:miter;stroke-width:0.8;"/>
   </g>
   <g id="legend_1">
    <g id="patch_7">
     <path d="M 338.296563 302.584 
L 407.72 302.584 
Q 409.72 302.584 409.72 300.584 
L 409.72 228.193375 
Q 409.72 226.193375 407.72 226.193375 
L 338.296563 226.193375 
Q 336.296563 226.193375 336.296563 228.193375 
L 336.296563 300.584 
Q 336.296563 302.584 338.296563 302.584 
z
" style="fill:#ffffff;opacity:0.8;stroke:#cccccc;stroke-linejoin:miter;"/>
    </g>
    <g id="line2d_22">
     <path d="M 340.296563 234.291812 
L 360.296563 234.291812 
" style="fill:none;stroke:#1f77b4;stroke-linecap:square;stroke-width:1.5;"/>
    </g>
    <g id="line2d_23"/>
    <g id="text_17">
     <!-- Layer 1 -->
     <defs>
      <path d="M 9.8125 72.90625 
L 19.671875 72.90625 
L 19.671875 8.296875 
L 55.171875 8.296875 
L 55.171875 0 
L 9.8125 0 
z
" id="DejaVuSans-76"/>
      <path d="M 34.28125 27.484375 
Q 23.390625 27.484375 19.1875 25 
Q 14.984375 22.515625 14.984375 16.5 
Q 14.984375 11.71875 18.140625 8.90625 
Q 21.296875 6.109375 26.703125 6.109375 
Q 34.1875 6.109375 38.703125 11.40625 
Q 43.21875 16.703125 43.21875 25.484375 
L 43.21875 27.484375 
z
M 52.203125 31.203125 
L 52.203125 0 
L 43.21875 0 
L 43.21875 8.296875 
Q 40.140625 3.328125 35.546875 0.953125 
Q 30.953125 -1.421875 24.3125 -1.421875 
Q 15.921875 -1.421875 10.953125 3.296875 
Q 6 8.015625 6 15.921875 
Q 6 25.140625 12.171875 29.828125 
Q 18.359375 34.515625 30.609375 34.515625 
L 43.21875 34.515625 
L 43.21875 35.40625 
Q 43.21875 41.609375 39.140625 45 
Q 35.0625 48.390625 27.6875 48.390625 
Q 23 48.390625 18.546875 47.265625 
Q 14.109375 46.140625 10.015625 43.890625 
L 10.015625 52.203125 
Q 14.9375 54.109375 19.578125 55.046875 
Q 24.21875 56 28.609375 56 
Q 40.484375 56 46.34375 49.84375 
Q 52.203125 43.703125 52.203125 31.203125 
z
" id="DejaVuSans-97"/>
      <path d="M 32.171875 -5.078125 
Q 28.375 -14.84375 24.75 -17.8125 
Q 21.140625 -20.796875 15.09375 -20.796875 
L 7.90625 -20.796875 
L 7.90625 -13.28125 
L 13.1875 -13.28125 
Q 16.890625 -13.28125 18.9375 -11.515625 
Q 21 -9.765625 23.484375 -3.21875 
L 25.09375 0.875 
L 2.984375 54.6875 
L 12.5 54.6875 
L 29.59375 11.921875 
L 46.6875 54.6875 
L 56.203125 54.6875 
z
" id="DejaVuSans-121"/>
      <path d="M 56.203125 29.59375 
L 56.203125 25.203125 
L 14.890625 25.203125 
Q 15.484375 15.921875 20.484375 11.0625 
Q 25.484375 6.203125 34.421875 6.203125 
Q 39.59375 6.203125 44.453125 7.46875 
Q 49.3125 8.734375 54.109375 11.28125 
L 54.109375 2.78125 
Q 49.265625 0.734375 44.1875 -0.34375 
Q 39.109375 -1.421875 33.890625 -1.421875 
Q 20.796875 -1.421875 13.15625 6.1875 
Q 5.515625 13.8125 5.515625 26.8125 
Q 5.515625 40.234375 12.765625 48.109375 
Q 20.015625 56 32.328125 56 
Q 43.359375 56 49.78125 48.890625 
Q 56.203125 41.796875 56.203125 29.59375 
z
M 47.21875 32.234375 
Q 47.125 39.59375 43.09375 43.984375 
Q 39.0625 48.390625 32.421875 48.390625 
Q 24.90625 48.390625 20.390625 44.140625 
Q 15.875 39.890625 15.1875 32.171875 
z
" id="DejaVuSans-101"/>
      <path d="M 41.109375 46.296875 
Q 39.59375 47.171875 37.8125 47.578125 
Q 36.03125 48 33.890625 48 
Q 26.265625 48 22.1875 43.046875 
Q 18.109375 38.09375 18.109375 28.8125 
L 18.109375 0 
L 9.078125 0 
L 9.078125 54.6875 
L 18.109375 54.6875 
L 18.109375 46.1875 
Q 20.953125 51.171875 25.484375 53.578125 
Q 30.03125 56 36.53125 56 
Q 37.453125 56 38.578125 55.875 
Q 39.703125 55.765625 41.0625 55.515625 
z
" id="DejaVuSans-114"/>
      <path id="DejaVuSans-32"/>
     </defs>
     <g transform="translate(368.296563 237.791812)scale(0.1 -0.1)">
      <use xlink:href="#DejaVuSans-76"/>
      <use x="55.712891" xlink:href="#DejaVuSans-97"/>
      <use x="116.992188" xlink:href="#DejaVuSans-121"/>
      <use x="176.171875" xlink:href="#DejaVuSans-101"/>
      <use x="237.695312" xlink:href="#DejaVuSans-114"/>
      <use x="278.808594" xlink:href="#DejaVuSans-32"/>
      <use x="310.595703" xlink:href="#DejaVuSans-49"/>
     </g>
    </g>
    <g id="line2d_24">
     <path d="M 340.296563 248.969937 
L 360.296563 248.969937 
" style="fill:none;stroke:#ff7f0e;stroke-linecap:square;stroke-width:1.5;"/>
    </g>
    <g id="line2d_25"/>
    <g id="text_18">
     <!-- Layer 2 -->
     <g transform="translate(368.296563 252.469937)scale(0.1 -0.1)">
      <use xlink:href="#DejaVuSans-76"/>
      <use x="55.712891" xlink:href="#DejaVuSans-97"/>
      <use x="116.992188" xlink:href="#DejaVuSans-121"/>
      <use x="176.171875" xlink:href="#DejaVuSans-101"/>
      <use x="237.695312" xlink:href="#DejaVuSans-114"/>
      <use x="278.808594" xlink:href="#DejaVuSans-32"/>
      <use x="310.595703" xlink:href="#DejaVuSans-50"/>
     </g>
    </g>
    <g id="line2d_26">
     <path d="M 340.296563 263.648062 
L 360.296563 263.648062 
" style="fill:none;stroke:#2ca02c;stroke-linecap:square;stroke-width:1.5;"/>
    </g>
    <g id="line2d_27"/>
    <g id="text_19">
     <!-- Layer 3 -->
     <g transform="translate(368.296563 267.148062)scale(0.1 -0.1)">
      <use xlink:href="#DejaVuSans-76"/>
      <use x="55.712891" xlink:href="#DejaVuSans-97"/>
      <use x="116.992188" xlink:href="#DejaVuSans-121"/>
      <use x="176.171875" xlink:href="#DejaVuSans-101"/>
      <use x="237.695312" xlink:href="#DejaVuSans-114"/>
      <use x="278.808594" xlink:href="#DejaVuSans-32"/>
      <use x="310.595703" xlink:href="#DejaVuSans-51"/>
     </g>
    </g>
    <g id="line2d_28">
     <path d="M 340.296563 278.326188 
L 360.296563 278.326188 
" style="fill:none;stroke:#d62728;stroke-linecap:square;stroke-width:1.5;"/>
    </g>
    <g id="line2d_29"/>
    <g id="text_20">
     <!-- Layer 4 -->
     <g transform="translate(368.296563 281.826188)scale(0.1 -0.1)">
      <use xlink:href="#DejaVuSans-76"/>
      <use x="55.712891" xlink:href="#DejaVuSans-97"/>
      <use x="116.992188" xlink:href="#DejaVuSans-121"/>
      <use x="176.171875" xlink:href="#DejaVuSans-101"/>
      <use x="237.695312" xlink:href="#DejaVuSans-114"/>
      <use x="278.808594" xlink:href="#DejaVuSans-32"/>
      <use x="310.595703" xlink:href="#DejaVuSans-52"/>
     </g>
    </g>
    <g id="line2d_30">
     <path d="M 340.296563 293.004312 
L 360.296563 293.004312 
" style="fill:none;stroke:#9467bd;stroke-linecap:square;stroke-width:1.5;"/>
    </g>
    <g id="line2d_31"/>
    <g id="text_21">
     <!-- Layer 5 -->
     <g transform="translate(368.296563 296.504312)scale(0.1 -0.1)">
      <use xlink:href="#DejaVuSans-76"/>
      <use x="55.712891" xlink:href="#DejaVuSans-97"/>
      <use x="116.992188" xlink:href="#DejaVuSans-121"/>
      <use x="176.171875" xlink:href="#DejaVuSans-101"/>
      <use x="237.695312" xlink:href="#DejaVuSans-114"/>
      <use x="278.808594" xlink:href="#DejaVuSans-32"/>
      <use x="310.595703" xlink:href="#DejaVuSans-53"/>
     </g>
    </g>
   </g>
  </g>
 </g>
 <defs>
  <clipPath id="p005c14f05c">
   <rect height="266.112" width="357.12" x="57.6" y="41.472"/>
  </clipPath>
 </defs>
</svg>
