<?xml version="1.0" encoding="utf-8" standalone="no"?>
<!DOCTYPE svg PUBLIC "-//W3C//DTD SVG 1.1//EN"
  "http://www.w3.org/Graphics/SVG/1.1/DTD/svg11.dtd">
<!-- Created with matplotlib (https://matplotlib.org/) -->
<svg height="345.6pt" version="1.1" viewBox="0 0 460.8 345.6" width="460.8pt" xmlns="http://www.w3.org/2000/svg" xmlns:xlink="http://www.w3.org/1999/xlink">
 <defs>
  <style type="text/css">
*{stroke-linecap:butt;stroke-linejoin:round;}
  </style>
 </defs>
 <g id="figure_1">
  <g id="patch_1">
   <path d="M 0 345.6 
L 460.8 345.6 
L 460.8 0 
L 0 0 
z
" style="fill:#ffffff;"/>
  </g>
  <g id="axes_1">
   <g id="patch_2">
    <path d="M 57.6 307.584 
L 414.72 307.584 
L 414.72 41.472 
L 57.6 41.472 
z
" style="fill:#ffffff;"/>
   </g>
   <g id="matplotlib.axis_1">
    <g id="xtick_1">
     <g id="line2d_1">
      <defs>
       <path d="M 0 0 
L 0 3.5 
" id="mc8492d8325" style="stroke:#000000;stroke-width:0.8;"/>
      </defs>
      <g>
       <use style="stroke:#000000;stroke-width:0.8;" x="73.832727" xlink:href="#mc8492d8325" y="307.584"/>
      </g>
     </g>
     <g id="text_1">
      <!-- 0 -->
      <defs>
       <path d="M 31.78125 66.40625 
Q 24.171875 66.40625 20.328125 58.90625 
Q 16.5 51.421875 16.5 36.375 
Q 16.5 21.390625 20.328125 13.890625 
Q 24.171875 6.390625 31.78125 6.390625 
Q 39.453125 6.390625 43.28125 13.890625 
Q 47.125 21.390625 47.125 36.375 
Q 47.125 51.421875 43.28125 58.90625 
Q 39.453125 66.40625 31.78125 66.40625 
z
M 31.78125 74.21875 
Q 44.046875 74.21875 50.515625 64.515625 
Q 56.984375 54.828125 56.984375 36.375 
Q 56.984375 17.96875 50.515625 8.265625 
Q 44.046875 -1.421875 31.78125 -1.421875 
Q 19.53125 -1.421875 13.0625 8.265625 
Q 6.59375 17.96875 6.59375 36.375 
Q 6.59375 54.828125 13.0625 64.515625 
Q 19.53125 74.21875 31.78125 74.21875 
z
" id="DejaVuSans-48"/>
      </defs>
      <g transform="translate(70.651477 322.182437)scale(0.1 -0.1)">
       <use xlink:href="#DejaVuSans-48"/>
      </g>
     </g>
    </g>
    <g id="xtick_2">
     <g id="line2d_2">
      <g>
       <use style="stroke:#000000;stroke-width:0.8;" x="120.211948" xlink:href="#mc8492d8325" y="307.584"/>
      </g>
     </g>
     <g id="text_2">
      <!-- 20 -->
      <defs>
       <path d="M 19.1875 8.296875 
L 53.609375 8.296875 
L 53.609375 0 
L 7.328125 0 
L 7.328125 8.296875 
Q 12.9375 14.109375 22.625 23.890625 
Q 32.328125 33.6875 34.8125 36.53125 
Q 39.546875 41.84375 41.421875 45.53125 
Q 43.3125 49.21875 43.3125 52.78125 
Q 43.3125 58.59375 39.234375 62.25 
Q 35.15625 65.921875 28.609375 65.921875 
Q 23.96875 65.921875 18.8125 64.3125 
Q 13.671875 62.703125 7.8125 59.421875 
L 7.8125 69.390625 
Q 13.765625 71.78125 18.9375 73 
Q 24.125 74.21875 28.421875 74.21875 
Q 39.75 74.21875 46.484375 68.546875 
Q 53.21875 62.890625 53.21875 53.421875 
Q 53.21875 48.921875 51.53125 44.890625 
Q 49.859375 40.875 45.40625 35.40625 
Q 44.1875 33.984375 37.640625 27.21875 
Q 31.109375 20.453125 19.1875 8.296875 
z
" id="DejaVuSans-50"/>
      </defs>
      <g transform="translate(113.849448 322.182437)scale(0.1 -0.1)">
       <use xlink:href="#DejaVuSans-50"/>
       <use x="63.623047" xlink:href="#DejaVuSans-48"/>
      </g>
     </g>
    </g>
    <g id="xtick_3">
     <g id="line2d_3">
      <g>
       <use style="stroke:#000000;stroke-width:0.8;" x="166.591169" xlink:href="#mc8492d8325" y="307.584"/>
      </g>
     </g>
     <g id="text_3">
      <!-- 40 -->
      <defs>
       <path d="M 37.796875 64.3125 
L 12.890625 25.390625 
L 37.796875 25.390625 
z
M 35.203125 72.90625 
L 47.609375 72.90625 
L 47.609375 25.390625 
L 58.015625 25.390625 
L 58.015625 17.1875 
L 47.609375 17.1875 
L 47.609375 0 
L 37.796875 0 
L 37.796875 17.1875 
L 4.890625 17.1875 
L 4.890625 26.703125 
z
" id="DejaVuSans-52"/>
      </defs>
      <g transform="translate(160.228669 322.182437)scale(0.1 -0.1)">
       <use xlink:href="#DejaVuSans-52"/>
       <use x="63.623047" xlink:href="#DejaVuSans-48"/>
      </g>
     </g>
    </g>
    <g id="xtick_4">
     <g id="line2d_4">
      <g>
       <use style="stroke:#000000;stroke-width:0.8;" x="212.97039" xlink:href="#mc8492d8325" y="307.584"/>
      </g>
     </g>
     <g id="text_4">
      <!-- 60 -->
      <defs>
       <path d="M 33.015625 40.375 
Q 26.375 40.375 22.484375 35.828125 
Q 18.609375 31.296875 18.609375 23.390625 
Q 18.609375 15.53125 22.484375 10.953125 
Q 26.375 6.390625 33.015625 6.390625 
Q 39.65625 6.390625 43.53125 10.953125 
Q 47.40625 15.53125 47.40625 23.390625 
Q 47.40625 31.296875 43.53125 35.828125 
Q 39.65625 40.375 33.015625 40.375 
z
M 52.59375 71.296875 
L 52.59375 62.3125 
Q 48.875 64.0625 45.09375 64.984375 
Q 41.3125 65.921875 37.59375 65.921875 
Q 27.828125 65.921875 22.671875 59.328125 
Q 17.53125 52.734375 16.796875 39.40625 
Q 19.671875 43.65625 24.015625 45.921875 
Q 28.375 48.1875 33.59375 48.1875 
Q 44.578125 48.1875 50.953125 41.515625 
Q 57.328125 34.859375 57.328125 23.390625 
Q 57.328125 12.15625 50.6875 5.359375 
Q 44.046875 -1.421875 33.015625 -1.421875 
Q 20.359375 -1.421875 13.671875 8.265625 
Q 6.984375 17.96875 6.984375 36.375 
Q 6.984375 53.65625 15.1875 63.9375 
Q 23.390625 74.21875 37.203125 74.21875 
Q 40.921875 74.21875 44.703125 73.484375 
Q 48.484375 72.75 52.59375 71.296875 
z
" id="DejaVuSans-54"/>
      </defs>
      <g transform="translate(206.60789 322.182437)scale(0.1 -0.1)">
       <use xlink:href="#DejaVuSans-54"/>
       <use x="63.623047" xlink:href="#DejaVuSans-48"/>
      </g>
     </g>
    </g>
    <g id="xtick_5">
     <g id="line2d_5">
      <g>
       <use style="stroke:#000000;stroke-width:0.8;" x="259.34961" xlink:href="#mc8492d8325" y="307.584"/>
      </g>
     </g>
     <g id="text_5">
      <!-- 80 -->
      <defs>
       <path d="M 31.78125 34.625 
Q 24.75 34.625 20.71875 30.859375 
Q 16.703125 27.09375 16.703125 20.515625 
Q 16.703125 13.921875 20.71875 10.15625 
Q 24.75 6.390625 31.78125 6.390625 
Q 38.8125 6.390625 42.859375 10.171875 
Q 46.921875 13.96875 46.921875 20.515625 
Q 46.921875 27.09375 42.890625 30.859375 
Q 38.875 34.625 31.78125 34.625 
z
M 21.921875 38.8125 
Q 15.578125 40.375 12.03125 44.71875 
Q 8.5 49.078125 8.5 55.328125 
Q 8.5 64.0625 14.71875 69.140625 
Q 20.953125 74.21875 31.78125 74.21875 
Q 42.671875 74.21875 48.875 69.140625 
Q 55.078125 64.0625 55.078125 55.328125 
Q 55.078125 49.078125 51.53125 44.71875 
Q 48 40.375 41.703125 38.8125 
Q 48.828125 37.15625 52.796875 32.3125 
Q 56.78125 27.484375 56.78125 20.515625 
Q 56.78125 9.90625 50.3125 4.234375 
Q 43.84375 -1.421875 31.78125 -1.421875 
Q 19.734375 -1.421875 13.25 4.234375 
Q 6.78125 9.90625 6.78125 20.515625 
Q 6.78125 27.484375 10.78125 32.3125 
Q 14.796875 37.15625 21.921875 38.8125 
z
M 18.3125 54.390625 
Q 18.3125 48.734375 21.84375 45.5625 
Q 25.390625 42.390625 31.78125 42.390625 
Q 38.140625 42.390625 41.71875 45.5625 
Q 45.3125 48.734375 45.3125 54.390625 
Q 45.3125 60.0625 41.71875 63.234375 
Q 38.140625 66.40625 31.78125 66.40625 
Q 25.390625 66.40625 21.84375 63.234375 
Q 18.3125 60.0625 18.3125 54.390625 
z
" id="DejaVuSans-56"/>
      </defs>
      <g transform="translate(252.98711 322.182437)scale(0.1 -0.1)">
       <use xlink:href="#DejaVuSans-56"/>
       <use x="63.623047" xlink:href="#DejaVuSans-48"/>
      </g>
     </g>
    </g>
    <g id="xtick_6">
     <g id="line2d_6">
      <g>
       <use style="stroke:#000000;stroke-width:0.8;" x="305.728831" xlink:href="#mc8492d8325" y="307.584"/>
      </g>
     </g>
     <g id="text_6">
      <!-- 100 -->
      <defs>
       <path d="M 12.40625 8.296875 
L 28.515625 8.296875 
L 28.515625 63.921875 
L 10.984375 60.40625 
L 10.984375 69.390625 
L 28.421875 72.90625 
L 38.28125 72.90625 
L 38.28125 8.296875 
L 54.390625 8.296875 
L 54.390625 0 
L 12.40625 0 
z
" id="DejaVuSans-49"/>
      </defs>
      <g transform="translate(296.185081 322.182437)scale(0.1 -0.1)">
       <use xlink:href="#DejaVuSans-49"/>
       <use x="63.623047" xlink:href="#DejaVuSans-48"/>
       <use x="127.246094" xlink:href="#DejaVuSans-48"/>
      </g>
     </g>
    </g>
    <g id="xtick_7">
     <g id="line2d_7">
      <g>
       <use style="stroke:#000000;stroke-width:0.8;" x="352.108052" xlink:href="#mc8492d8325" y="307.584"/>
      </g>
     </g>
     <g id="text_7">
      <!-- 120 -->
      <g transform="translate(342.564302 322.182437)scale(0.1 -0.1)">
       <use xlink:href="#DejaVuSans-49"/>
       <use x="63.623047" xlink:href="#DejaVuSans-50"/>
       <use x="127.246094" xlink:href="#DejaVuSans-48"/>
      </g>
     </g>
    </g>
    <g id="xtick_8">
     <g id="line2d_8">
      <g>
       <use style="stroke:#000000;stroke-width:0.8;" x="398.487273" xlink:href="#mc8492d8325" y="307.584"/>
      </g>
     </g>
     <g id="text_8">
      <!-- 140 -->
      <g transform="translate(388.943523 322.182437)scale(0.1 -0.1)">
       <use xlink:href="#DejaVuSans-49"/>
       <use x="63.623047" xlink:href="#DejaVuSans-52"/>
       <use x="127.246094" xlink:href="#DejaVuSans-48"/>
      </g>
     </g>
    </g>
   </g>
   <g id="matplotlib.axis_2">
    <g id="ytick_1">
     <g id="line2d_9">
      <defs>
       <path d="M 0 0 
L -3.5 0 
" id="m3c34fb5e4c" style="stroke:#000000;stroke-width:0.8;"/>
      </defs>
      <g>
       <use style="stroke:#000000;stroke-width:0.8;" x="57.6" xlink:href="#m3c34fb5e4c" y="290.240429"/>
      </g>
     </g>
     <g id="text_9">
      <!-- 0.1 -->
      <defs>
       <path d="M 10.6875 12.40625 
L 21 12.40625 
L 21 0 
L 10.6875 0 
z
" id="DejaVuSans-46"/>
      </defs>
      <g transform="translate(34.696875 294.039647)scale(0.1 -0.1)">
       <use xlink:href="#DejaVuSans-48"/>
       <use x="63.623047" xlink:href="#DejaVuSans-46"/>
       <use x="95.410156" xlink:href="#DejaVuSans-49"/>
      </g>
     </g>
    </g>
    <g id="ytick_2">
     <g id="line2d_10">
      <g>
       <use style="stroke:#000000;stroke-width:0.8;" x="57.6" xlink:href="#m3c34fb5e4c" y="254.899037"/>
      </g>
     </g>
     <g id="text_10">
      <!-- 0.2 -->
      <g transform="translate(34.696875 258.698256)scale(0.1 -0.1)">
       <use xlink:href="#DejaVuSans-48"/>
       <use x="63.623047" xlink:href="#DejaVuSans-46"/>
       <use x="95.410156" xlink:href="#DejaVuSans-50"/>
      </g>
     </g>
    </g>
    <g id="ytick_3">
     <g id="line2d_11">
      <g>
       <use style="stroke:#000000;stroke-width:0.8;" x="57.6" xlink:href="#m3c34fb5e4c" y="219.557645"/>
      </g>
     </g>
     <g id="text_11">
      <!-- 0.3 -->
      <defs>
       <path d="M 40.578125 39.3125 
Q 47.65625 37.796875 51.625 33 
Q 55.609375 28.21875 55.609375 21.1875 
Q 55.609375 10.40625 48.1875 4.484375 
Q 40.765625 -1.421875 27.09375 -1.421875 
Q 22.515625 -1.421875 17.65625 -0.515625 
Q 12.796875 0.390625 7.625 2.203125 
L 7.625 11.71875 
Q 11.71875 9.328125 16.59375 8.109375 
Q 21.484375 6.890625 26.8125 6.890625 
Q 36.078125 6.890625 40.9375 10.546875 
Q 45.796875 14.203125 45.796875 21.1875 
Q 45.796875 27.640625 41.28125 31.265625 
Q 36.765625 34.90625 28.71875 34.90625 
L 20.21875 34.90625 
L 20.21875 43.015625 
L 29.109375 43.015625 
Q 36.375 43.015625 40.234375 45.921875 
Q 44.09375 48.828125 44.09375 54.296875 
Q 44.09375 59.90625 40.109375 62.90625 
Q 36.140625 65.921875 28.71875 65.921875 
Q 24.65625 65.921875 20.015625 65.03125 
Q 15.375 64.15625 9.8125 62.3125 
L 9.8125 71.09375 
Q 15.4375 72.65625 20.34375 73.4375 
Q 25.25 74.21875 29.59375 74.21875 
Q 40.828125 74.21875 47.359375 69.109375 
Q 53.90625 64.015625 53.90625 55.328125 
Q 53.90625 49.265625 50.4375 45.09375 
Q 46.96875 40.921875 40.578125 39.3125 
z
" id="DejaVuSans-51"/>
      </defs>
      <g transform="translate(34.696875 223.356864)scale(0.1 -0.1)">
       <use xlink:href="#DejaVuSans-48"/>
       <use x="63.623047" xlink:href="#DejaVuSans-46"/>
       <use x="95.410156" xlink:href="#DejaVuSans-51"/>
      </g>
     </g>
    </g>
    <g id="ytick_4">
     <g id="line2d_12">
      <g>
       <use style="stroke:#000000;stroke-width:0.8;" x="57.6" xlink:href="#m3c34fb5e4c" y="184.216253"/>
      </g>
     </g>
     <g id="text_12">
      <!-- 0.4 -->
      <g transform="translate(34.696875 188.015472)scale(0.1 -0.1)">
       <use xlink:href="#DejaVuSans-48"/>
       <use x="63.623047" xlink:href="#DejaVuSans-46"/>
       <use x="95.410156" xlink:href="#DejaVuSans-52"/>
      </g>
     </g>
    </g>
    <g id="ytick_5">
     <g id="line2d_13">
      <g>
       <use style="stroke:#000000;stroke-width:0.8;" x="57.6" xlink:href="#m3c34fb5e4c" y="148.874862"/>
      </g>
     </g>
     <g id="text_13">
      <!-- 0.5 -->
      <defs>
       <path d="M 10.796875 72.90625 
L 49.515625 72.90625 
L 49.515625 64.59375 
L 19.828125 64.59375 
L 19.828125 46.734375 
Q 21.96875 47.46875 24.109375 47.828125 
Q 26.265625 48.1875 28.421875 48.1875 
Q 40.625 48.1875 47.75 41.5 
Q 54.890625 34.8125 54.890625 23.390625 
Q 54.890625 11.625 47.5625 5.09375 
Q 40.234375 -1.421875 26.90625 -1.421875 
Q 22.3125 -1.421875 17.546875 -0.640625 
Q 12.796875 0.140625 7.71875 1.703125 
L 7.71875 11.625 
Q 12.109375 9.234375 16.796875 8.0625 
Q 21.484375 6.890625 26.703125 6.890625 
Q 35.15625 6.890625 40.078125 11.328125 
Q 45.015625 15.765625 45.015625 23.390625 
Q 45.015625 31 40.078125 35.4375 
Q 35.15625 39.890625 26.703125 39.890625 
Q 22.75 39.890625 18.8125 39.015625 
Q 14.890625 38.140625 10.796875 36.28125 
z
" id="DejaVuSans-53"/>
      </defs>
      <g transform="translate(34.696875 152.674081)scale(0.1 -0.1)">
       <use xlink:href="#DejaVuSans-48"/>
       <use x="63.623047" xlink:href="#DejaVuSans-46"/>
       <use x="95.410156" xlink:href="#DejaVuSans-53"/>
      </g>
     </g>
    </g>
    <g id="ytick_6">
     <g id="line2d_14">
      <g>
       <use style="stroke:#000000;stroke-width:0.8;" x="57.6" xlink:href="#m3c34fb5e4c" y="113.53347"/>
      </g>
     </g>
     <g id="text_14">
      <!-- 0.6 -->
      <g transform="translate(34.696875 117.332689)scale(0.1 -0.1)">
       <use xlink:href="#DejaVuSans-48"/>
       <use x="63.623047" xlink:href="#DejaVuSans-46"/>
       <use x="95.410156" xlink:href="#DejaVuSans-54"/>
      </g>
     </g>
    </g>
    <g id="ytick_7">
     <g id="line2d_15">
      <g>
       <use style="stroke:#000000;stroke-width:0.8;" x="57.6" xlink:href="#m3c34fb5e4c" y="78.192078"/>
      </g>
     </g>
     <g id="text_15">
      <!-- 0.7 -->
      <defs>
       <path d="M 8.203125 72.90625 
L 55.078125 72.90625 
L 55.078125 68.703125 
L 28.609375 0 
L 18.3125 0 
L 43.21875 64.59375 
L 8.203125 64.59375 
z
" id="DejaVuSans-55"/>
      </defs>
      <g transform="translate(34.696875 81.991297)scale(0.1 -0.1)">
       <use xlink:href="#DejaVuSans-48"/>
       <use x="63.623047" xlink:href="#DejaVuSans-46"/>
       <use x="95.410156" xlink:href="#DejaVuSans-55"/>
      </g>
     </g>
    </g>
    <g id="ytick_8">
     <g id="line2d_16">
      <g>
       <use style="stroke:#000000;stroke-width:0.8;" x="57.6" xlink:href="#m3c34fb5e4c" y="42.850687"/>
      </g>
     </g>
     <g id="text_16">
      <!-- 0.8 -->
      <g transform="translate(34.696875 46.649905)scale(0.1 -0.1)">
       <use xlink:href="#DejaVuSans-48"/>
       <use x="63.623047" xlink:href="#DejaVuSans-46"/>
       <use x="95.410156" xlink:href="#DejaVuSans-56"/>
      </g>
     </g>
    </g>
   </g>
   <g id="line2d_17">
    <path clip-path="url(#pa8d128e968)" d="M 73.832727 238.182017 
L 76.151688 251.45904 
L 78.470649 244.740897 
L 80.78961 239.754116 
L 85.427532 232.017549 
L 87.746494 227.704657 
L 92.384416 218.347787 
L 99.341299 204.211065 
L 103.979221 194.048813 
L 115.574026 170.900099 
L 117.892987 166.930337 
L 120.211948 163.529923 
L 122.530909 159.341031 
L 124.84987 156.481336 
L 127.168831 154.387106 
L 129.487792 151.282141 
L 131.806753 149.230536 
L 134.125714 144.893387 
L 138.763636 145.207995 
L 141.082597 141.227257 
L 145.720519 138.853851 
L 148.039481 138.983381 
L 150.358442 137.335289 
L 152.677403 136.802657 
L 154.996364 134.486822 
L 157.315325 132.955199 
L 159.634286 134.317459 
L 161.953247 133.489389 
L 164.272208 131.37302 
L 166.591169 130.114737 
L 168.91013 129.655139 
L 171.229091 128.571444 
L 173.548052 128.721933 
L 175.867013 126.740191 
L 178.185974 125.572573 
L 180.504935 126.47694 
L 182.823896 126.677754 
L 185.142857 125.328281 
L 187.461818 124.273045 
L 189.780779 125.264285 
L 192.09974 123.152929 
L 196.737662 124.238351 
L 199.056623 123.139784 
L 201.375584 122.910364 
L 203.694545 121.789574 
L 206.013506 122.047453 
L 208.332468 121.726463 
L 210.651429 121.248601 
L 212.97039 119.596043 
L 215.289351 120.527205 
L 217.608312 122.039195 
L 219.927273 122.114187 
L 222.246234 122.011895 
L 224.565195 121.663836 
L 226.884156 119.391353 
L 229.203117 120.30027 
L 231.522078 120.141039 
L 233.841039 119.041946 
L 236.16 120.557181 
L 238.478961 119.143943 
L 240.797922 118.651525 
L 243.116883 119.674426 
L 245.435844 119.19332 
L 247.754805 116.594096 
L 250.073766 117.053357 
L 252.392727 118.478812 
L 254.711688 117.243238 
L 257.030649 118.943804 
L 259.34961 118.580599 
L 263.987532 117.53044 
L 266.306494 118.246527 
L 268.625455 117.78023 
L 270.944416 116.777699 
L 273.263377 116.719202 
L 275.582338 117.889305 
L 277.901299 116.800323 
L 280.22026 115.498626 
L 282.539221 115.477455 
L 284.858182 116.759099 
L 287.177143 117.35817 
L 289.496104 114.694549 
L 291.815065 115.380177 
L 294.134026 114.81955 
L 296.452987 114.667691 
L 298.771948 114.92003 
L 301.090909 114.706262 
L 303.40987 113.417625 
L 305.728831 113.984044 
L 308.047792 112.957541 
L 310.366753 114.32117 
L 312.685714 114.310617 
L 317.323636 112.598782 
L 319.642597 114.628595 
L 321.961558 113.644601 
L 324.280519 113.542456 
L 326.599481 112.67192 
L 328.918442 112.441594 
L 331.237403 112.533775 
L 333.556364 112.104426 
L 335.875325 113.266398 
L 338.194286 113.979557 
L 340.513247 114.936946 
L 342.832208 115.182565 
L 345.151169 114.760841 
L 347.47013 114.689789 
L 349.789091 114.284938 
L 352.108052 114.28913 
L 354.427013 115.759623 
L 356.745974 113.51642 
L 359.064935 114.447919 
L 361.383896 114.375434 
L 363.702857 114.547241 
L 366.021818 113.917057 
L 368.340779 114.719722 
L 370.65974 115.339584 
L 372.978701 115.790799 
L 375.297662 115.400778 
L 377.616623 115.285405 
L 379.935584 114.635399 
L 382.254545 113.435425 
L 384.573506 113.459523 
L 386.892468 114.405115 
L 389.211429 111.856236 
L 391.53039 114.293006 
L 393.849351 114.697162 
L 396.168312 113.36037 
L 398.487273 113.36037 
L 398.487273 113.36037 
" style="fill:none;stroke:#1f77b4;stroke-linecap:square;stroke-width:1.5;"/>
   </g>
   <g id="line2d_18">
    <path clip-path="url(#pa8d128e968)" d="M 73.832727 266.45168 
L 76.151688 275.398954 
L 78.470649 261.700644 
L 80.78961 251.812207 
L 83.108571 244.226571 
L 92.384416 216.888828 
L 101.66026 188.315975 
L 108.617143 166.407543 
L 115.574026 145.968171 
L 117.892987 140.6779 
L 120.211948 134.73162 
L 124.84987 124.975714 
L 129.487792 117.247156 
L 131.806753 114.839288 
L 134.125714 110.820718 
L 136.444675 109.974764 
L 138.763636 107.971809 
L 141.082597 105.410397 
L 143.401558 103.158094 
L 145.720519 101.506568 
L 148.039481 100.223598 
L 150.358442 98.335321 
L 152.677403 97.123129 
L 154.996364 95.471035 
L 159.634286 93.307669 
L 161.953247 92.895193 
L 164.272208 91.438604 
L 166.591169 90.666209 
L 171.229091 88.264808 
L 173.548052 88.104439 
L 175.867013 87.008084 
L 178.185974 86.130722 
L 180.504935 85.679466 
L 182.823896 85.512188 
L 185.142857 85.541342 
L 187.461818 84.355123 
L 189.780779 84.291675 
L 192.09974 83.19768 
L 194.418701 82.724052 
L 196.737662 80.889028 
L 199.056623 81.665488 
L 201.375584 81.046131 
L 203.694545 80.769926 
L 206.013506 80.218336 
L 208.332468 80.19508 
L 210.651429 78.944929 
L 212.97039 79.001509 
L 215.289351 78.058361 
L 217.608312 77.626358 
L 219.927273 77.752749 
L 222.246234 76.634507 
L 224.565195 75.861207 
L 226.884156 77.74902 
L 231.522078 75.658919 
L 233.841039 75.826934 
L 236.16 75.515823 
L 238.478961 75.453955 
L 240.797922 74.899227 
L 243.116883 74.647772 
L 247.754805 74.722174 
L 250.073766 74.404934 
L 252.392727 72.957761 
L 254.711688 72.806871 
L 257.030649 73.025232 
L 259.34961 72.557987 
L 261.668571 72.341606 
L 263.987532 72.692656 
L 266.306494 71.794861 
L 268.625455 71.866904 
L 270.944416 72.223325 
L 273.263377 72.154464 
L 275.582338 71.632281 
L 277.901299 70.787464 
L 280.22026 71.734868 
L 282.539221 70.86233 
L 284.858182 70.655154 
L 287.177143 69.890322 
L 289.496104 70.496366 
L 291.815065 69.68875 
L 296.452987 69.93319 
L 298.771948 69.263804 
L 305.728831 69.210635 
L 308.047792 68.279305 
L 310.366753 68.400282 
L 317.323636 67.906621 
L 321.961558 67.08643 
L 324.280519 67.350207 
L 328.918442 67.627571 
L 331.237403 67.102123 
L 333.556364 67.61034 
L 335.875325 66.378558 
L 340.513247 65.869203 
L 342.832208 65.431091 
L 345.151169 65.798214 
L 347.47013 65.501006 
L 349.789091 65.414534 
L 352.108052 65.522282 
L 354.427013 64.835012 
L 356.745974 65.482343 
L 359.064935 64.819318 
L 361.383896 65.091774 
L 363.702857 65.11838 
L 366.021818 65.680397 
L 368.340779 64.932185 
L 370.65974 64.870022 
L 375.297662 64.198677 
L 377.616623 64.264758 
L 379.935584 64.741904 
L 382.254545 64.583052 
L 384.573506 64.661751 
L 386.892468 64.395193 
L 389.211429 65.115599 
L 391.53039 64.206218 
L 393.849351 64.027291 
L 396.168312 64.445623 
L 398.487273 64.445623 
L 398.487273 64.445623 
" style="fill:none;stroke:#ff7f0e;stroke-linecap:square;stroke-width:1.5;"/>
   </g>
   <g id="line2d_19">
    <path clip-path="url(#pa8d128e968)" d="M 73.832727 281.005307 
L 76.151688 283.108716 
L 78.470649 267.442993 
L 80.78961 254.432486 
L 83.108571 244.526322 
L 87.746494 227.062213 
L 94.703377 201.472474 
L 106.298182 160.805309 
L 108.617143 153.004003 
L 115.574026 130.824842 
L 120.211948 119.902098 
L 124.84987 109.833944 
L 127.168831 106.289065 
L 131.806753 100.233477 
L 134.125714 97.740653 
L 136.444675 95.443039 
L 138.763636 93.314894 
L 141.082597 90.837384 
L 143.401558 89.357518 
L 145.720519 87.31416 
L 148.039481 86.521838 
L 152.677403 83.400073 
L 154.996364 81.963791 
L 157.315325 81.332343 
L 161.953247 79.277905 
L 164.272208 77.939217 
L 166.591169 77.501484 
L 175.867013 74.279028 
L 178.185974 73.753116 
L 180.504935 73.391913 
L 185.142857 71.788183 
L 187.461818 71.486594 
L 189.780779 70.74209 
L 194.418701 69.938014 
L 196.737662 68.859754 
L 201.375584 68.573921 
L 206.013506 67.575878 
L 210.651429 66.641345 
L 212.97039 66.397158 
L 215.289351 65.950199 
L 217.608312 65.301161 
L 219.927273 65.039175 
L 222.246234 64.358708 
L 226.884156 64.34885 
L 229.203117 63.894412 
L 231.522078 63.638998 
L 233.841039 63.207311 
L 236.16 63.207268 
L 238.478961 62.83785 
L 243.116883 62.337174 
L 245.435844 62.481007 
L 247.754805 62.050415 
L 250.073766 61.870455 
L 252.392727 61.27168 
L 257.030649 60.678423 
L 261.668571 60.269044 
L 263.987532 60.327373 
L 266.306494 59.859327 
L 273.263377 59.660662 
L 275.582338 59.146779 
L 277.901299 59.317575 
L 282.539221 59.085563 
L 284.858182 58.747658 
L 289.496104 58.609239 
L 291.815065 57.916134 
L 294.134026 58.102307 
L 296.452987 58.007283 
L 298.771948 57.411056 
L 301.090909 57.31799 
L 303.40987 57.665543 
L 305.728831 57.221069 
L 308.047792 57.115365 
L 310.366753 56.613341 
L 312.685714 56.680265 
L 315.004675 56.588737 
L 317.323636 56.354704 
L 319.642597 56.275604 
L 321.961558 55.909155 
L 324.280519 55.782091 
L 328.918442 55.834522 
L 331.237403 55.289209 
L 333.556364 55.3274 
L 335.875325 55.20497 
L 338.194286 55.254536 
L 340.513247 54.776674 
L 342.832208 54.627638 
L 345.151169 54.800983 
L 347.47013 54.765215 
L 349.789091 54.389919 
L 359.064935 54.328387 
L 366.021818 54.382314 
L 368.340779 54.181037 
L 372.978701 54.125888 
L 375.297662 54.049654 
L 377.616623 54.107983 
L 379.935584 54.007861 
L 382.254545 54.103222 
L 391.53039 53.732729 
L 393.849351 53.568 
L 398.487273 53.661129 
L 398.487273 53.661129 
" style="fill:none;stroke:#2ca02c;stroke-linecap:square;stroke-width:1.5;"/>
   </g>
   <g id="line2d_20">
    <path clip-path="url(#pa8d128e968)" d="M 73.832727 289.027151 
L 76.151688 289.180216 
L 80.78961 263.251342 
L 83.108571 253.245114 
L 87.746494 235.266684 
L 92.384416 218.356751 
L 106.298182 169.847718 
L 108.617143 161.89388 
L 115.574026 140.175413 
L 117.892987 134.580414 
L 120.211948 129.368042 
L 122.530909 124.6764 
L 124.84987 120.352154 
L 127.168831 116.62127 
L 129.487792 113.814702 
L 131.806753 110.794787 
L 136.444675 105.657448 
L 138.763636 103.517612 
L 141.082597 100.917356 
L 143.401558 99.893739 
L 145.720519 97.287248 
L 148.039481 96.087 
L 150.358442 95.019588 
L 152.677403 93.709486 
L 154.996364 92.045279 
L 157.315325 91.187213 
L 159.634286 90.097093 
L 161.953247 88.745914 
L 164.272208 87.544929 
L 166.591169 87.343652 
L 168.91013 86.343438 
L 171.229091 85.082796 
L 173.548052 84.722309 
L 175.867013 83.905846 
L 178.185974 83.3658 
L 182.823896 82.072887 
L 185.142857 80.852416 
L 187.461818 80.491297 
L 189.780779 79.828104 
L 192.09974 79.497361 
L 194.418701 78.723071 
L 196.737662 78.69023 
L 199.056623 78.156525 
L 201.375584 77.863509 
L 203.694545 77.316006 
L 208.332468 75.992337 
L 210.651429 75.610637 
L 212.97039 75.558017 
L 215.289351 74.881068 
L 217.608312 74.472363 
L 219.927273 74.428864 
L 222.246234 73.830615 
L 224.565195 73.709764 
L 226.884156 73.166389 
L 231.522078 72.766152 
L 233.841039 72.540208 
L 236.16 72.436989 
L 238.478961 72.138138 
L 240.797922 71.720986 
L 245.435844 71.552739 
L 247.754805 71.040667 
L 257.030649 69.929272 
L 261.668571 69.83766 
L 263.987532 69.295738 
L 266.306494 69.1953 
L 268.625455 69.264752 
L 273.263377 68.797549 
L 275.582338 68.317117 
L 277.901299 68.252131 
L 280.22026 68.397922 
L 284.858182 67.681329 
L 287.177143 67.623759 
L 289.496104 67.311026 
L 291.815065 67.225986 
L 294.134026 66.997556 
L 296.452987 66.995239 
L 298.771948 66.490793 
L 301.090909 66.176501 
L 303.40987 66.432548 
L 305.728831 65.982534 
L 308.047792 65.720736 
L 310.366753 65.59424 
L 312.685714 65.674646 
L 315.004675 65.628113 
L 317.323636 65.068118 
L 321.961558 65.441266 
L 326.599481 64.666575 
L 328.918442 64.765539 
L 331.237403 64.311523 
L 333.556364 64.274869 
L 338.194286 63.908673 
L 340.513247 64.005299 
L 342.832208 63.769875 
L 347.47013 63.779397 
L 349.789091 63.71498 
L 352.108052 63.828584 
L 354.427013 63.784811 
L 356.745974 63.599332 
L 359.064935 63.580374 
L 361.383896 63.763577 
L 363.702857 63.355019 
L 366.021818 63.550251 
L 370.65974 63.494049 
L 372.978701 63.347099 
L 377.616623 63.449601 
L 382.254545 63.354198 
L 386.892468 63.131181 
L 389.211429 63.208195 
L 391.53039 62.910124 
L 393.849351 62.968622 
L 398.487273 62.877347 
L 398.487273 62.877347 
" style="fill:none;stroke:#d62728;stroke-linecap:square;stroke-width:1.5;"/>
   </g>
   <g id="line2d_21">
    <path clip-path="url(#pa8d128e968)" d="M 73.832727 295.488 
L 76.151688 290.197671 
L 78.470649 278.627735 
L 80.78961 269.05706 
L 83.108571 263.07272 
L 85.427532 258.016409 
L 90.065455 248.742805 
L 99.341299 230.683769 
L 103.979221 220.644885 
L 108.617143 210.18333 
L 113.255065 200.610016 
L 115.574026 194.910619 
L 117.892987 190.732986 
L 122.530909 182.82903 
L 124.84987 179.273744 
L 127.168831 176.391047 
L 129.487792 173.158395 
L 131.806753 170.492911 
L 134.125714 168.294756 
L 136.444675 165.614052 
L 138.763636 163.471699 
L 141.082597 160.895478 
L 143.401558 160.761925 
L 145.720519 157.576185 
L 152.677403 153.326952 
L 154.996364 152.442249 
L 157.315325 150.98528 
L 159.634286 149.783453 
L 161.953247 148.126734 
L 164.272208 147.043608 
L 166.591169 146.282547 
L 171.229091 143.793367 
L 173.548052 143.416828 
L 175.867013 142.805582 
L 178.185974 141.402477 
L 182.823896 140.034109 
L 185.142857 138.797481 
L 187.461818 138.129191 
L 189.780779 137.771084 
L 192.09974 136.938675 
L 194.418701 136.309039 
L 196.737662 135.479789 
L 203.694545 134.346423 
L 208.332468 132.131722 
L 210.651429 131.727503 
L 212.97039 131.0115 
L 217.608312 130.082992 
L 219.927273 129.895492 
L 222.246234 129.22619 
L 224.565195 129.01834 
L 231.522078 127.465526 
L 233.841039 127.348088 
L 238.478961 126.485429 
L 240.797922 126.317267 
L 243.116883 125.812273 
L 245.435844 125.812841 
L 247.754805 124.824677 
L 250.073766 124.168499 
L 252.392727 123.94188 
L 254.711688 123.510825 
L 257.030649 123.28229 
L 259.34961 123.17549 
L 261.668571 122.767795 
L 263.987532 122.135084 
L 266.306494 122.177088 
L 273.263377 121.743083 
L 275.582338 121.260882 
L 277.901299 121.005931 
L 280.22026 120.359569 
L 282.539221 120.237054 
L 284.858182 119.71268 
L 287.177143 120.030763 
L 294.134026 118.911111 
L 296.452987 118.678341 
L 301.090909 117.889579 
L 312.685714 116.742415 
L 315.004675 117.421491 
L 317.323636 116.736012 
L 326.599481 115.555186 
L 331.237403 115.48308 
L 333.556364 114.875562 
L 335.875325 114.446908 
L 338.194286 114.347312 
L 340.513247 114.411603 
L 342.832208 114.313903 
L 345.151169 113.98356 
L 347.47013 114.255068 
L 349.789091 113.909537 
L 354.427013 114.27904 
L 356.745974 114.116755 
L 359.064935 114.27824 
L 361.383896 114.028639 
L 372.978701 113.619428 
L 375.297662 113.466622 
L 377.616623 113.439195 
L 379.935584 113.291487 
L 382.254545 113.41952 
L 386.892468 113.196399 
L 389.211429 112.663767 
L 391.53039 112.853164 
L 393.849351 112.688982 
L 398.487273 112.771642 
L 398.487273 112.771642 
" style="fill:none;stroke:#9467bd;stroke-linecap:square;stroke-width:1.5;"/>
   </g>
   <g id="patch_3">
    <path d="M 57.6 307.584 
L 57.6 41.472 
" style="fill:none;stroke:#000000;stroke-linecap:square;stroke-linejoin:miter;stroke-width:0.8;"/>
   </g>
   <g id="patch_4">
    <path d="M 414.72 307.584 
L 414.72 41.472 
" style="fill:none;stroke:#000000;stroke-linecap:square;stroke-linejoin:miter;stroke-width:0.8;"/>
   </g>
   <g id="patch_5">
    <path d="M 57.6 307.584 
L 414.72 307.584 
" style="fill:none;stroke:#000000;stroke-linecap:square;stroke-linejoin:miter;stroke-width:0.8;"/>
   </g>
   <g id="patch_6">
    <path d="M 57.6 41.472 
L 414.72 41.472 
" style="fill:none;stroke:#000000;stroke-linecap:square;stroke-linejoin:miter;stroke-width:0.8;"/>
   </g>
   <g id="legend_1">
    <g id="patch_7">
     <path d="M 338.296563 302.584 
L 407.72 302.584 
Q 409.72 302.584 409.72 300.584 
L 409.72 228.193375 
Q 409.72 226.193375 407.72 226.193375 
L 338.296563 226.193375 
Q 336.296563 226.193375 336.296563 228.193375 
L 336.296563 300.584 
Q 336.296563 302.584 338.296563 302.584 
z
" style="fill:#ffffff;opacity:0.8;stroke:#cccccc;stroke-linejoin:miter;"/>
    </g>
    <g id="line2d_22">
     <path d="M 340.296563 234.291812 
L 360.296563 234.291812 
" style="fill:none;stroke:#1f77b4;stroke-linecap:square;stroke-width:1.5;"/>
    </g>
    <g id="line2d_23"/>
    <g id="text_17">
     <!-- Layer 1 -->
     <defs>
      <path d="M 9.8125 72.90625 
L 19.671875 72.90625 
L 19.671875 8.296875 
L 55.171875 8.296875 
L 55.171875 0 
L 9.8125 0 
z
" id="DejaVuSans-76"/>
      <path d="M 34.28125 27.484375 
Q 23.390625 27.484375 19.1875 25 
Q 14.984375 22.515625 14.984375 16.5 
Q 14.984375 11.71875 18.140625 8.90625 
Q 21.296875 6.109375 26.703125 6.109375 
Q 34.1875 6.109375 38.703125 11.40625 
Q 43.21875 16.703125 43.21875 25.484375 
L 43.21875 27.484375 
z
M 52.203125 31.203125 
L 52.203125 0 
L 43.21875 0 
L 43.21875 8.296875 
Q 40.140625 3.328125 35.546875 0.953125 
Q 30.953125 -1.421875 24.3125 -1.421875 
Q 15.921875 -1.421875 10.953125 3.296875 
Q 6 8.015625 6 15.921875 
Q 6 25.140625 12.171875 29.828125 
Q 18.359375 34.515625 30.609375 34.515625 
L 43.21875 34.515625 
L 43.21875 35.40625 
Q 43.21875 41.609375 39.140625 45 
Q 35.0625 48.390625 27.6875 48.390625 
Q 23 48.390625 18.546875 47.265625 
Q 14.109375 46.140625 10.015625 43.890625 
L 10.015625 52.203125 
Q 14.9375 54.109375 19.578125 55.046875 
Q 24.21875 56 28.609375 56 
Q 40.484375 56 46.34375 49.84375 
Q 52.203125 43.703125 52.203125 31.203125 
z
" id="DejaVuSans-97"/>
      <path d="M 32.171875 -5.078125 
Q 28.375 -14.84375 24.75 -17.8125 
Q 21.140625 -20.796875 15.09375 -20.796875 
L 7.90625 -20.796875 
L 7.90625 -13.28125 
L 13.1875 -13.28125 
Q 16.890625 -13.28125 18.9375 -11.515625 
Q 21 -9.765625 23.484375 -3.21875 
L 25.09375 0.875 
L 2.984375 54.6875 
L 12.5 54.6875 
L 29.59375 11.921875 
L 46.6875 54.6875 
L 56.203125 54.6875 
z
" id="DejaVuSans-121"/>
      <path d="M 56.203125 29.59375 
L 56.203125 25.203125 
L 14.890625 25.203125 
Q 15.484375 15.921875 20.484375 11.0625 
Q 25.484375 6.203125 34.421875 6.203125 
Q 39.59375 6.203125 44.453125 7.46875 
Q 49.3125 8.734375 54.109375 11.28125 
L 54.109375 2.78125 
Q 49.265625 0.734375 44.1875 -0.34375 
Q 39.109375 -1.421875 33.890625 -1.421875 
Q 20.796875 -1.421875 13.15625 6.1875 
Q 5.515625 13.8125 5.515625 26.8125 
Q 5.515625 40.234375 12.765625 48.109375 
Q 20.015625 56 32.328125 56 
Q 43.359375 56 49.78125 48.890625 
Q 56.203125 41.796875 56.203125 29.59375 
z
M 47.21875 32.234375 
Q 47.125 39.59375 43.09375 43.984375 
Q 39.0625 48.390625 32.421875 48.390625 
Q 24.90625 48.390625 20.390625 44.140625 
Q 15.875 39.890625 15.1875 32.171875 
z
" id="DejaVuSans-101"/>
      <path d="M 41.109375 46.296875 
Q 39.59375 47.171875 37.8125 47.578125 
Q 36.03125 48 33.890625 48 
Q 26.265625 48 22.1875 43.046875 
Q 18.109375 38.09375 18.109375 28.8125 
L 18.109375 0 
L 9.078125 0 
L 9.078125 54.6875 
L 18.109375 54.6875 
L 18.109375 46.1875 
Q 20.953125 51.171875 25.484375 53.578125 
Q 30.03125 56 36.53125 56 
Q 37.453125 56 38.578125 55.875 
Q 39.703125 55.765625 41.0625 55.515625 
z
" id="DejaVuSans-114"/>
      <path id="DejaVuSans-32"/>
     </defs>
     <g transform="translate(368.296563 237.791812)scale(0.1 -0.1)">
      <use xlink:href="#DejaVuSans-76"/>
      <use x="55.712891" xlink:href="#DejaVuSans-97"/>
      <use x="116.992188" xlink:href="#DejaVuSans-121"/>
      <use x="176.171875" xlink:href="#DejaVuSans-101"/>
      <use x="237.695312" xlink:href="#DejaVuSans-114"/>
      <use x="278.808594" xlink:href="#DejaVuSans-32"/>
      <use x="310.595703" xlink:href="#DejaVuSans-49"/>
     </g>
    </g>
    <g id="line2d_24">
     <path d="M 340.296563 248.969937 
L 360.296563 248.969937 
" style="fill:none;stroke:#ff7f0e;stroke-linecap:square;stroke-width:1.5;"/>
    </g>
    <g id="line2d_25"/>
    <g id="text_18">
     <!-- Layer 2 -->
     <g transform="translate(368.296563 252.469937)scale(0.1 -0.1)">
      <use xlink:href="#DejaVuSans-76"/>
      <use x="55.712891" xlink:href="#DejaVuSans-97"/>
      <use x="116.992188" xlink:href="#DejaVuSans-121"/>
      <use x="176.171875" xlink:href="#DejaVuSans-101"/>
      <use x="237.695312" xlink:href="#DejaVuSans-114"/>
      <use x="278.808594" xlink:href="#DejaVuSans-32"/>
      <use x="310.595703" xlink:href="#DejaVuSans-50"/>
     </g>
    </g>
    <g id="line2d_26">
     <path d="M 340.296563 263.648062 
L 360.296563 263.648062 
" style="fill:none;stroke:#2ca02c;stroke-linecap:square;stroke-width:1.5;"/>
    </g>
    <g id="line2d_27"/>
    <g id="text_19">
     <!-- Layer 3 -->
     <g transform="translate(368.296563 267.148062)scale(0.1 -0.1)">
      <use xlink:href="#DejaVuSans-76"/>
      <use x="55.712891" xlink:href="#DejaVuSans-97"/>
      <use x="116.992188" xlink:href="#DejaVuSans-121"/>
      <use x="176.171875" xlink:href="#DejaVuSans-101"/>
      <use x="237.695312" xlink:href="#DejaVuSans-114"/>
      <use x="278.808594" xlink:href="#DejaVuSans-32"/>
      <use x="310.595703" xlink:href="#DejaVuSans-51"/>
     </g>
    </g>
    <g id="line2d_28">
     <path d="M 340.296563 278.326188 
L 360.296563 278.326188 
" style="fill:none;stroke:#d62728;stroke-linecap:square;stroke-width:1.5;"/>
    </g>
    <g id="line2d_29"/>
    <g id="text_20">
     <!-- Layer 4 -->
     <g transform="translate(368.296563 281.826188)scale(0.1 -0.1)">
      <use xlink:href="#DejaVuSans-76"/>
      <use x="55.712891" xlink:href="#DejaVuSans-97"/>
      <use x="116.992188" xlink:href="#DejaVuSans-121"/>
      <use x="176.171875" xlink:href="#DejaVuSans-101"/>
      <use x="237.695312" xlink:href="#DejaVuSans-114"/>
      <use x="278.808594" xlink:href="#DejaVuSans-32"/>
      <use x="310.595703" xlink:href="#DejaVuSans-52"/>
     </g>
    </g>
    <g id="line2d_30">
     <path d="M 340.296563 293.004312 
L 360.296563 293.004312 
" style="fill:none;stroke:#9467bd;stroke-linecap:square;stroke-width:1.5;"/>
    </g>
    <g id="line2d_31"/>
    <g id="text_21">
     <!-- Layer 5 -->
     <g transform="translate(368.296563 296.504312)scale(0.1 -0.1)">
      <use xlink:href="#DejaVuSans-76"/>
      <use x="55.712891" xlink:href="#DejaVuSans-97"/>
      <use x="116.992188" xlink:href="#DejaVuSans-121"/>
      <use x="176.171875" xlink:href="#DejaVuSans-101"/>
      <use x="237.695312" xlink:href="#DejaVuSans-114"/>
      <use x="278.808594" xlink:href="#DejaVuSans-32"/>
      <use x="310.595703" xlink:href="#DejaVuSans-53"/>
     </g>
    </g>
   </g>
  </g>
 </g>
 <defs>
  <clipPath id="pa8d128e968">
   <rect height="266.112" width="357.12" x="57.6" y="41.472"/>
  </clipPath>
 </defs>
</svg>
